<?xml version="1.0" encoding="utf-8"?>
<!-- Generator: Adobe Illustrator 26.0.0, SVG Export Plug-In . SVG Version: 6.00 Build 0)  -->
<svg version="1.1" id="Capa_1" xmlns="http://www.w3.org/2000/svg" xmlns:xlink="http://www.w3.org/1999/xlink" x="0px" y="0px"
	 viewBox="0 0 10 5" style="enable-background:new 0 0 10 5;" xml:space="preserve">
<style type="text/css">
	.st0{fill:#FF0040;}
</style>
<g>
	<g>
		<g>
			<path class="st0" d="M7.49,1.47C7.48,1.21,7.43,1.02,7.37,0.86C7.3,0.7,7.22,0.56,7.08,0.42S6.8,0.2,6.64,0.13
				C6.48,0.07,6.3,0.03,6.03,0.02C5.77,0.01,5.68,0,5,0S4.23,0.01,3.97,0.02C3.7,0.03,3.52,0.07,3.36,0.13
				C3.2,0.2,3.06,0.28,2.92,0.42C2.78,0.56,2.7,0.7,2.63,0.86C2.56,1.02,2.53,1.2,2.51,1.47c0,0.27-0.01,0.36-0.01,1.03
				c0,0.68,0.01,0.77,0.02,1.04c0.01,0.26,0.05,0.44,0.11,0.6C2.7,4.3,2.78,4.44,2.92,4.58C3.06,4.72,3.2,4.81,3.36,4.87
				c0.16,0.06,0.34,0.1,0.61,0.12C4.23,5,4.32,5,5,5s0.77,0,1.03-0.01C6.3,4.98,6.48,4.93,6.64,4.87c0.16-0.06,0.3-0.15,0.44-0.29
				S7.3,4.3,7.37,4.14c0.06-0.16,0.1-0.34,0.12-0.61c0-0.26,0.01-0.35,0.01-1.03C7.5,1.83,7.49,1.74,7.49,1.47z M7.03,3.51
				C7.02,3.76,6.99,3.89,6.95,3.98c-0.04,0.12-0.1,0.2-0.18,0.29c-0.1,0.08-0.18,0.14-0.29,0.18c-0.1,0.04-0.22,0.08-0.47,0.08
				C5.75,4.55,5.67,4.55,5,4.55s-0.75,0-1.01-0.02c-0.25,0-0.37-0.04-0.47-0.08c-0.12-0.04-0.2-0.1-0.28-0.18
				C3.15,4.18,3.09,4.09,3.05,3.98C3.01,3.89,2.98,3.76,2.97,3.51C2.95,3.25,2.95,3.17,2.95,2.5s0-0.74,0.01-1
				c0.01-0.25,0.05-0.38,0.09-0.47c0.04-0.12,0.1-0.2,0.19-0.29C3.33,0.66,3.41,0.6,3.52,0.55c0.09-0.03,0.22-0.07,0.47-0.09
				C4.25,0.45,4.33,0.45,5,0.45s0.75,0,1.01,0.01c0.25,0.01,0.37,0.06,0.47,0.09c0.12,0.05,0.2,0.1,0.29,0.19s0.14,0.17,0.18,0.29
				C6.99,1.12,7.02,1.25,7.03,1.5c0.01,0.26,0.01,0.34,0.01,1S7.05,3.25,7.03,3.51z"/>
		</g>
		<g>
			<g>
				<path class="st0" d="M5,1.22c-0.71,0-1.28,0.58-1.28,1.28c0,0.71,0.57,1.29,1.28,1.29S6.29,3.21,6.29,2.5
					C6.29,1.8,5.71,1.22,5,1.22z M5,3.33c-0.46,0-0.83-0.37-0.83-0.83S4.54,1.67,5,1.67S5.83,2.04,5.83,2.5
					C5.83,2.97,5.46,3.33,5,3.33z"/>
			</g>
		</g>
		<g>
			<circle class="st0" cx="6.34" cy="1.17" r="0.3"/>
		</g>
	</g>
</g>
</svg>
