<?xml version="1.0" encoding="utf-8"?>
<!-- Generator: Adobe Illustrator 26.0.0, SVG Export Plug-In . SVG Version: 6.00 Build 0)  -->
<svg version="1.1" id="Capa_1" xmlns="http://www.w3.org/2000/svg" xmlns:xlink="http://www.w3.org/1999/xlink" x="0px" y="0px"
	 viewBox="0 0 10 10" style="enable-background:new 0 0 10 10;" xml:space="preserve">
<style type="text/css">
	.st0{fill:#FBDE00;}
</style>
<g>
	<path class="st0" d="M5,0C2.24,0,0,2.24,0,5c0,2.76,2.24,5,5,5s5-2.24,5-5C10,2.24,7.76,0,5,0z M3.91,2.86l0.98-0.98
		c0.06-0.06,0.16-0.06,0.23,0l1.76,1.76C6.88,3.65,6.89,3.66,6.9,3.67c0.48,0.5,0.46,1.28-0.02,1.77c-0.49,0.49-1.3,0.49-1.79,0
		L3.91,4.26C3.52,3.88,3.52,3.25,3.91,2.86z M6.87,7.39C5.85,8.41,4.18,8.42,3.15,7.41L3.1,7.37C2.63,6.87,2.64,6.09,3.13,5.6
		c0.49-0.49,1.3-0.49,1.79,0c0.58,0.58,1.54,0.58,2.12,0c0.05-0.05,0.1-0.11,0.14-0.17C7.19,5.42,7.19,5.41,7.2,5.4
		c0,0,0.01-0.01,0.01-0.01c0-0.01,0.01-0.01,0.01-0.02C7.25,5.34,7.27,5.3,7.29,5.27C7.29,5.26,7.3,5.25,7.3,5.24
		c0.01-0.01,0.01-0.02,0.02-0.03C7.32,5.2,7.33,5.19,7.34,5.18c0.01-0.01,0.01-0.02,0.01-0.03c0-0.01,0.01-0.02,0.01-0.03
		C7.38,5.08,7.4,5.03,7.41,4.99c0-0.02,0.01-0.03,0.01-0.05c0,0,0-0.01,0-0.01c0.01-0.02,0.01-0.04,0.01-0.06c0-0.01,0-0.01,0-0.01
		c0-0.02,0.01-0.04,0.01-0.06c0,0,0,0,0-0.01c0-0.02,0.01-0.05,0.01-0.07c0-0.02,0-0.04,0.01-0.06V4.66c0-0.01,0-0.01,0-0.02
		c0-0.02,0-0.03,0-0.05C7.82,5.53,7.62,6.64,6.87,7.39z"/>
</g>
</svg>
