<?xml version="1.0" encoding="utf-8"?>
<!-- Generator: Adobe Illustrator 26.0.0, SVG Export Plug-In . SVG Version: 6.00 Build 0)  -->
<svg version="1.1" id="Capa_1" xmlns="http://www.w3.org/2000/svg" xmlns:xlink="http://www.w3.org/1999/xlink" x="0px" y="0px"
	 viewBox="0 0 10 5" style="enable-background:new 0 0 10 5;" xml:space="preserve">
<style type="text/css">
	.st0{fill-rule:evenodd;clip-rule:evenodd;fill:#FF0040;}
	.st1{fill:#FF0040;}
</style>
<g>
	<g>
		<g>
			<g>
				<path class="st0" d="M4.99,0C3.61,0,2.5,1.13,2.5,2.51S3.63,5,5.01,5C6.39,5,7.5,3.88,7.5,2.5C7.5,1.12,6.38,0,4.99,0z
					 M4.99,4.74c-1.24,0-2.24-1.01-2.23-2.24S3.77,0.26,5,0.26c1.23,0,2.23,1,2.23,2.24C7.24,3.74,6.23,4.74,4.99,4.74L4.99,4.74z"
					/>
			</g>
		</g>
		<g>
			<g>
				<path class="st1" d="M6.03,2.34v-0.2c0-0.24-0.1-0.48-0.27-0.65C5.58,1.31,5.35,1.21,5.1,1.21H4.93c-0.25,0-0.48,0.1-0.66,0.27
					C4.1,1.65,4,1.89,4,2.13v0.2L3.88,2.55v0.3c0,0.27,0.11,0.53,0.31,0.72c0.2,0.19,0.46,0.3,0.74,0.3h0.19
					c0.27,0,0.54-0.11,0.73-0.3c0.2-0.19,0.31-0.45,0.31-0.72v-0.3L6.03,2.34z M5.12,3.26V3.5c0,0.04-0.02,0.07-0.05,0.09H5.03
					c-0.01,0-0.01,0-0.02,0H5c0,0-0.01,0-0.01,0H4.97C4.94,3.57,4.92,3.54,4.92,3.5V3.26C4.77,3.2,4.7,3.04,4.76,2.89
					C4.8,2.78,4.91,2.7,5.03,2.71h0.01c0.16,0,0.29,0.12,0.29,0.28c0,0.12-0.07,0.23-0.18,0.27H5.12z M5.62,2.34h-1.2V2.13
					c0-0.14,0.06-0.26,0.15-0.36c0.1-0.1,0.23-0.15,0.36-0.15H5.1c0.14,0,0.27,0.05,0.36,0.15C5.56,1.87,5.61,2,5.62,2.13L5.62,2.34
					z"/>
			</g>
		</g>
	</g>
</g>
</svg>
