<?xml version="1.0" encoding="utf-8"?>
<!-- Generator: Adobe Illustrator 26.0.0, SVG Export Plug-In . SVG Version: 6.00 Build 0)  -->
<svg version="1.1" id="Capa_1" xmlns="http://www.w3.org/2000/svg" xmlns:xlink="http://www.w3.org/1999/xlink" x="0px" y="0px"
	 viewBox="0 0 20 10" style="enable-background:new 0 0 20 10;" xml:space="preserve">
<style type="text/css">
	.st0{fill:#FF0040;}
</style>
<path class="st0" d="M2.5,5.2C2.5,5.2,2.5,5.1,2.5,5.2C2.4,5.1,2.4,5.2,2.5,5.2L2.2,6.6L2.4,8c0,0,0,0.1,0.1,0.1c0,0,0.1,0,0.1-0.1
	l0.2-1.4L2.5,5.2z M5.1,4C5.1,3.9,5,3.9,5.1,4C4.9,3.9,4.9,3.9,4.9,4L4.8,6.6l0.1,1.7C4.9,8.4,5,8.4,5,8.4c0.1,0,0.1-0.1,0.1-0.1
	l0.1-1.7L5.1,4z M3.8,4.9C3.8,4.8,3.8,4.8,3.8,4.9c-0.1-0.1-0.2-0.1-0.2,0L3.5,6.6l0.1,1.7c0,0.1,0,0.1,0.1,0.1c0,0,0.1,0,0.1-0.1
	L4,6.6L3.8,4.9z M6.5,3.1C6.5,3,6.4,3,6.3,3C6.2,3,6.2,3,6.2,3.1L6.1,6.6l0.1,1.7c0,0.1,0.1,0.1,0.1,0.1c0.1,0,0.1-0.1,0.1-0.1
	l0.1-1.7L6.5,3.1z M9.2,2.6c0-0.1-0.1-0.2-0.2-0.2c-0.1,0-0.2,0.1-0.2,0.2l-0.1,4l0.1,1.6c0,0.1,0.1,0.2,0.2,0.2
	c0.1,0,0.2-0.1,0.2-0.2l0.1-1.6L9.2,2.6z M7.8,3.1c0-0.1-0.1-0.2-0.2-0.2c0,0-0.1,0.1-0.1,0.2L7.4,6.6l0.1,1.7
	c0,0.1,0.1,0.2,0.2,0.2s0.2-0.1,0.2-0.2L8,6.6L7.8,3.1z M15.8,4.5c-0.3,0-0.5,0.1-0.8,0.2c-0.2-1.8-1.7-3.2-3.5-3.2
	c-0.4,0-0.9,0.1-1.3,0.2C10.1,1.8,10,1.8,10,1.9v6.3c0,0.1,0.1,0.2,0.2,0.2h5.5c1.1,0,2-0.9,2-2C17.8,5.4,16.9,4.5,15.8,4.5z"/>
</svg>
