<?xml version="1.0" encoding="utf-8"?>
<!-- Generator: Adobe Illustrator 26.0.0, SVG Export Plug-In . SVG Version: 6.00 Build 0)  -->
<svg version="1.1" id="Capa_1" xmlns="http://www.w3.org/2000/svg" xmlns:xlink="http://www.w3.org/1999/xlink" x="0px" y="0px"
	 viewBox="0 0 56.7 28.3" style="enable-background:new 0 0 56.7 28.3;" xml:space="preserve">
<style type="text/css">
	.st0{fill:#FF0040;}
	.st1{fill:none;stroke:#FF0040;stroke-linecap:round;stroke-linejoin:round;stroke-miterlimit:10;}
</style>
<g>
	<path class="st0" d="M51.9,13.7c-1.2,0-2.7-0.1-3.1-0.1c2.7-4.9,1.9-6.5,1.4-7c-0.4-0.3-0.7-0.2-0.8-0.1c-0.2,0.1-0.3,0.4-0.2,0.6
		c0.3,0.8,0.3,2.2-0.6,3.4c-1.5,2-4.7,2.8-9,2.5c-0.2,0-0.5,0-0.7,0.2c-0.1,0.2,0,0.5,0.1,0.6s0.2,0.1,0.5,0.2
		c1.2,0.3,4.5,0.5,7.7,0.6L45.8,17c-1.8,3-3.5,5.9-4.5,7.5l-0.1-0.1l-1.7-1c-2.2-1.2-4.1-2.3-5.1-3c0.2-0.2,0.4-0.4,0.6-0.6
		c0.5-0.5,1-0.9,1.5-1.2c1.1-0.3,2.2-0.7,3.2-1c3.2-1.1,3.2-1.1,3.3-1.4c0-0.2,0-0.4-0.1-0.5c-0.2-0.2-0.4-0.3-0.8-0.3
		c-1.2,0-3.6,0.5-6.1,2.3c-0.2,0.1-0.4,0.1-0.6,0.2c0.5-1,0.9-2,1.4-3c1.7-2.9,3.2-5.7,3.4-6.6c0.1-0.2,0.2-0.7-0.3-0.9
		c-0.6-0.1-0.7-0.2-4.2,7.4c-1.8,2.9-3.9,5.8-5,7.2c0-0.3,0-0.6-0.1-0.9c-0.1-0.4-0.4-0.5-0.5-0.5c-0.4,0-0.6,0.2-0.8,0.5h-0.1
		c-0.4-0.2-0.9,0.1-1.7,0.6c-0.5,0.4-1.5,1-1.9,0.8c-0.3-0.6,1.9-2.9,3.6-4.5c1.1-1.1,2.2-2.3,3.2-3.4l0.2-0.3
		c0.1-0.1,0.1-0.2,0.2-0.3c0.2-0.2,0.3-0.5,0-0.7c-0.1-0.1-0.2-0.1-0.3-0.1c-0.2,0-0.3,0.1-0.4,0.2c-0.1,0.1-0.2,0.1-0.2,0.2
		c-3.7,4-7,7.1-9.5,8.9c0.7-0.6,1.4-1.2,2.1-2c5.6-6,8.9-14.8,4.2-19.4c-1.3-1.3-2.6-1.2-3.5-0.9c-0.5,0.2-0.9,0.5-1.3,0.8
		c-0.5-0.1-1.2,0-2,0.3C17.4,3,12,12.3,11,18.4c-0.5,2.8-0.1,4.9,1.1,6c1.4,1.4,3.4,1.6,5.6,0.9c1.6,0.5,4.2-0.9,7-3.2
		c-0.1,0.4,0,0.6,0.1,0.9s0.4,0.5,0.7,0.6c0.8,0.2,1.7-0.4,2.6-1c0.2-0.1,0.4-0.3,0.6-0.4c0.1,0.1,0.2,0.3,0.4,0.3
		c0.2,0.1,0.4,0,0.5-0.1c0,0.5,0,1.2,0.6,1.3c0.2,0,0.7-0.5,1.4-1.3c-1.5,2.5-2.3,5-2,5.6c0.1,0.2,0.3,0.3,0.5,0.3
		c0.5-0.1,0.5-0.1,3.6-7.2c1,0.7,2.6,1.7,5.2,3.1l1.5,0.9c0,0.1-0.1,0.3-0.2,0.4c-0.2,0.4-0.4,0.7-0.2,1c0.1,0.1,0.4,0.2,0.6,0.2
		c0.5-0.1,0.9-0.7,6-9.3l1.7-2.9c1.1,0,4.4,0,6-0.2s2.4-0.4,2.4-0.8C56.7,13.1,53.1,13.7,51.9,13.7z M12.6,23.8
		c-1.2-1.1-1-3.4-0.7-5.1c1.2-6.3,6.7-15.1,10.4-16.5C22.5,2.1,22.7,2,22.9,2c-3.6,4.2-6.4,13.9-6.7,19.1c-0.1,1.7,0,2.8,0.4,3.5
		C15.1,25,13.7,24.8,12.6,23.8z M17.6,24.3c-0.2-0.2-0.5-0.8-0.4-3.1c0.3-5.8,3.6-15.8,7-19.1c2.2,1.7,0.6,7.4,0.6,7.7
		c0.2,0.4,1.6-4.1,1.1-6.4C25.8,2.7,25.5,2,25,1.6l-0.1-0.1c0.6-0.4,1.7-1,3.1,0.4c4,4.1,1.1,12.3-4.2,17.9
		C22,21.8,19.7,23.5,17.6,24.3z M47.8,13.6c-0.7,0-1.3-0.1-2-0.1c1.3-0.4,2.2-1,2.9-1.5C48.4,12.5,48.1,13,47.8,13.6z"/>
</g>
<path class="st1" d="M53.9,2.4"/>
</svg>
