<?xml version="1.0" encoding="utf-8"?>
<!-- Generator: Adobe Illustrator 26.0.0, SVG Export Plug-In . SVG Version: 6.00 Build 0)  -->
<svg version="1.1" id="Capa_1" xmlns="http://www.w3.org/2000/svg" xmlns:xlink="http://www.w3.org/1999/xlink" x="0px" y="0px"
	 viewBox="0 0 10 5" style="enable-background:new 0 0 10 5;" xml:space="preserve">
<style type="text/css">
	.st0{fill:#FF0040;}
</style>
<g>
	<path class="st0" d="M8.08,0.59c-0.23,0.1-0.47,0.17-0.72,0.2c0.26-0.16,0.46-0.4,0.56-0.7C7.66,0.24,7.39,0.34,7.1,0.4
		C6.87,0.15,6.55,0,6.18,0c-0.7,0-1.26,0.57-1.26,1.26c0,0.1,0.01,0.2,0.03,0.29C3.9,1.5,2.97,0.99,2.35,0.23
		c-0.11,0.19-0.17,0.4-0.17,0.63c0,0.44,0.22,0.82,0.56,1.05C2.53,1.9,2.34,1.85,2.17,1.75c0,0.01,0,0.01,0,0.02
		c0,0.61,0.44,1.12,1.01,1.24c-0.1,0.03-0.21,0.05-0.33,0.05c-0.08,0-0.16-0.01-0.24-0.02c0.16,0.5,0.63,0.87,1.18,0.88
		C3.36,4.25,2.82,4.45,2.22,4.45c-0.1,0-0.2-0.01-0.3-0.02C2.48,4.79,3.15,5,3.86,5c2.32,0,3.59-1.92,3.59-3.59
		c0-0.05,0-0.11,0-0.16C7.69,1.07,7.91,0.85,8.08,0.59"/>
</g>
</svg>
