<?xml version="1.0" encoding="utf-8"?>
<!-- Generator: Adobe Illustrator 26.0.0, SVG Export Plug-In . SVG Version: 6.00 Build 0)  -->
<svg version="1.1" id="Capa_1" xmlns="http://www.w3.org/2000/svg" xmlns:xlink="http://www.w3.org/1999/xlink" x="0px" y="0px"
	 viewBox="0 0 150 50" style="enable-background:new 0 0 150 50;" xml:space="preserve">
<style type="text/css">
	.st0{fill:#FF0040;}
</style>
<g>
	<path class="st0" d="M84.6,16.8c-1-1.1-2.3-2.1-3.7-2.7c-1.4-0.7-3-1-4.8-1c-1.7,0-3.3,0.3-4.7,1s-2.7,1.5-3.7,2.6
		s-1.9,2.4-2.4,3.8c-0.6,1.4-0.9,2.9-0.9,4.5c0,1.5,0.3,3,0.8,4.4s1.3,2.7,2.4,3.8s2.3,2,3.7,2.7c1.4,0.7,3,1,4.7,1
		c1.7,0,3.3-0.3,4.7-1c1.4-0.7,2.7-1.5,3.7-2.7c1.1-1.1,1.9-2.4,2.4-3.8c0.6-1.4,0.9-2.9,0.9-4.5c0-1.5-0.3-2.9-0.8-4.4
		C86.4,19.2,85.6,18,84.6,16.8z M81.9,27.5c-0.2,0.8-0.6,1.6-1.1,2.3c-0.5,0.7-1.2,1.2-1.9,1.7s-1.7,0.6-2.7,0.6
		c-1,0-1.9-0.2-2.7-0.6c-0.8-0.4-1.4-0.9-1.9-1.6s-0.9-1.4-1.2-2.3c-0.3-0.9-0.4-1.7-0.4-2.6s0.1-1.8,0.4-2.6s0.7-1.6,1.2-2.3
		s1.2-1.2,1.9-1.6c0.8-0.4,1.7-0.6,2.7-0.6c1,0,1.8,0.2,2.6,0.6c0.8,0.4,1.4,0.9,1.9,1.6c0.5,0.7,0.9,1.4,1.2,2.3
		c0.3,0.8,0.4,1.7,0.4,2.6C82.3,25.8,82.2,26.7,81.9,27.5z"/>
	<path class="st0" d="M44.7,13.2h-6.1l-8.6,10.1V13.2h-5.4v8.2c-0.1-0.3-0.2-0.5-0.3-0.8c-0.5-1.4-1.3-2.7-2.4-3.9s-2.3-2.1-3.7-2.7
		c-1.4-0.7-3-1-4.8-1c-1.7,0-3.3,0.3-4.7,1S6,15.5,5,16.7S3.1,19,2.5,20.5c-0.6,1.4-0.9,2.9-0.9,4.5c0,1.5,0.3,3,0.8,4.4
		s1.3,2.7,2.4,3.8s2.3,2,3.7,2.7c1.4,0.7,3,1,4.7,1c1.7,0,3.3-0.3,4.7-1c1.4-0.7,2.7-1.5,3.7-2.7c1.1-1.1,1.9-2.4,2.5-3.8
		c0.1-0.3,0.2-0.6,0.3-0.9v8.1h5.4v-6.9l2.4-2.5l6.6,9.5h6.2l-9.4-13l4.8-5.7h11.7v18.8h5.4V18h7.2v-4.8L44.7,13.2L44.7,13.2z
		 M19.1,27.5c-0.2,0.8-0.6,1.6-1.1,2.3c-0.5,0.7-1.1,1.2-1.9,1.7s-1.7,0.6-2.7,0.6c-1,0-1.9-0.2-2.7-0.6c-0.8-0.4-1.4-0.9-1.9-1.6
		c-0.5-0.7-0.9-1.4-1.2-2.3c-0.3-0.8-0.4-1.7-0.4-2.6s0.1-1.8,0.4-2.6s0.6-1.6,1.2-2.3s1.1-1.2,1.9-1.6c0.8-0.4,1.7-0.6,2.7-0.6
		c1,0,1.9,0.2,2.6,0.6c0.8,0.4,1.4,0.9,1.9,1.6c0.5,0.7,0.9,1.4,1.2,2.3c0.3,0.8,0.4,1.7,0.4,2.6C19.5,25.8,19.4,26.7,19.1,27.5z"/>
	<path class="st0" d="M104.6,15.8c-0.7-0.8-1.5-1.4-2.4-1.8s-2-0.7-3.1-0.7H89v23.5h5.4v-7.6h4.8c1.5,0,2.8-0.4,3.9-1.1s2-1.8,2.6-3
		c0.6-1.2,0.9-2.5,0.9-3.8c0-1-0.2-2-0.6-2.9C105.8,17.4,105.3,16.5,104.6,15.8z M100.9,23c-0.2,0.5-0.5,0.9-0.8,1.1
		c-0.3,0.2-0.7,0.4-1.1,0.4h-4.4V18h4.2c0.4,0,0.8,0.1,1.2,0.3s0.7,0.6,0.9,1c0.2,0.5,0.4,1.1,0.4,1.8
		C101.2,21.9,101.1,22.5,100.9,23z"/>
	<path class="st0" d="M123.5,25.2c0,0.9-0.1,1.7-0.3,2.5s-0.5,1.6-0.9,2.2c-0.4,0.7-0.9,1.2-1.5,1.6s-1.4,0.6-2.3,0.6
		c-0.9,0-1.7-0.2-2.3-0.6s-1.2-0.9-1.5-1.5c-0.4-0.6-0.7-1.4-0.8-2.2s-0.3-1.7-0.3-2.6v-12H108v12c0,1.5,0.2,3,0.6,4.4
		s1,2.7,1.8,3.8c0.8,1.1,1.9,2,3.2,2.6c1.3,0.6,2.9,0.9,4.8,0.9c1.8,0,3.4-0.3,4.7-0.9c1.3-0.6,2.4-1.4,3.2-2.5
		c0.8-1.1,1.5-2.3,1.9-3.7c0.4-1.4,0.6-2.9,0.6-4.5v-12h-5.4L123.5,25.2L123.5,25.2z"/>
	<path class="st0" d="M147.5,26.3c-0.6-0.9-1.4-1.6-2.5-2.1s-2.4-1-3.9-1.5c-1.1-0.3-2-0.5-2.7-0.8s-1.3-0.5-1.7-0.8
		c-0.4-0.3-0.6-0.7-0.6-1.2c0-0.6,0.2-1.1,0.8-1.5s1.2-0.5,2.2-0.5c0.7,0,1.4,0.1,2.1,0.3c0.7,0.2,1.4,0.4,1.9,0.7s1.1,0.5,1.5,0.8
		s0.6,0.4,0.7,0.5l2.4-4.4c-0.7-0.4-1.4-0.8-2.4-1.2c-0.9-0.4-1.9-0.7-2.9-1s-2.1-0.4-3.2-0.4c-1.6,0-3,0.3-4.3,0.9
		c-1.3,0.6-2.4,1.4-3.2,2.6c-0.8,1.1-1.2,2.5-1.2,4.2c0,1.2,0.2,2.1,0.7,2.9s1.1,1.5,2.1,2c0.9,0.5,2.1,1,3.6,1.5
		c1.1,0.3,2.1,0.6,2.9,0.9c0.9,0.3,1.5,0.6,2,0.9c0.5,0.3,0.8,0.8,0.8,1.4c0,0.5-0.2,1-0.7,1.3c-0.5,0.3-1.2,0.5-2.2,0.5
		c-0.9,0-1.8-0.1-2.6-0.4c-0.9-0.2-1.7-0.5-2.4-0.9c-0.7-0.3-1.3-0.6-1.8-0.9c-0.5-0.3-0.8-0.5-0.9-0.6l-2.4,4.8
		c0.9,0.6,1.9,1.1,3.1,1.5c1.1,0.4,2.3,0.8,3.5,1c1.2,0.2,2.4,0.4,3.5,0.4c1.1,0,2.2-0.1,3.3-0.4s2-0.7,2.9-1.2s1.5-1.3,2-2.2
		c0.5-0.9,0.7-2,0.7-3.3C148.4,28.3,148.1,27.2,147.5,26.3z"/>
</g>
<image style="overflow:visible;enable-background:new    ;" width="2000" height="2000" xlink:href="C8118BFA.jpeg"  transform="matrix(1 0 0 1 -850 1249.5955)">
</image>
</svg>
