<?xml version="1.0" encoding="utf-8"?>
<!-- Generator: Adobe Illustrator 26.0.0, SVG Export Plug-In . SVG Version: 6.00 Build 0)  -->
<svg version="1.1" id="Capa_1" xmlns="http://www.w3.org/2000/svg" xmlns:xlink="http://www.w3.org/1999/xlink" x="0px" y="0px"
	 viewBox="0 0 30 6" style="enable-background:new 0 0 30 6;" xml:space="preserve">
<style type="text/css">
	.st0{fill:#FFFFFF;}
</style>
<g>
	<path class="st0" d="M16.97,1.32c-0.21-0.24-0.46-0.42-0.75-0.56c-0.29-0.14-0.62-0.21-0.97-0.21c-0.35,0-0.67,0.07-0.96,0.2
		c-0.29,0.13-0.55,0.31-0.76,0.54s-0.38,0.49-0.5,0.78c-0.12,0.29-0.18,0.6-0.18,0.92c0,0.31,0.06,0.61,0.17,0.91
		c0.11,0.29,0.28,0.55,0.49,0.79c0.21,0.23,0.46,0.42,0.76,0.56c0.29,0.14,0.61,0.21,0.97,0.21c0.35,0,0.67-0.07,0.97-0.2
		c0.29-0.13,0.55-0.31,0.76-0.54c0.22-0.23,0.38-0.49,0.5-0.78c0.12-0.29,0.18-0.6,0.18-0.92c0-0.3-0.06-0.6-0.17-0.89
		C17.34,1.82,17.18,1.56,16.97,1.32z M16.41,3.51c-0.05,0.17-0.13,0.33-0.23,0.47c-0.1,0.14-0.24,0.26-0.39,0.34
		c-0.16,0.08-0.34,0.12-0.55,0.12c-0.21,0-0.4-0.04-0.55-0.12C14.53,4.24,14.4,4.14,14.29,4c-0.11-0.13-0.19-0.29-0.24-0.46
		C13.99,3.36,13.96,3.18,13.96,3s0.03-0.36,0.08-0.53C14.1,2.29,14.18,2.14,14.28,2s0.24-0.25,0.39-0.33
		c0.16-0.08,0.34-0.12,0.56-0.12c0.2,0,0.38,0.04,0.54,0.11c0.16,0.08,0.29,0.18,0.4,0.32c0.11,0.14,0.19,0.29,0.24,0.46
		c0.06,0.17,0.08,0.35,0.08,0.54C16.49,3.17,16.46,3.34,16.41,3.51z"/>
	<path class="st0" d="M8.8,0.59H7.55L5.79,2.67V0.59H4.67v1.68C4.66,2.22,4.64,2.17,4.62,2.11C4.51,1.82,4.34,1.56,4.13,1.32
		S3.67,0.9,3.38,0.76C3.09,0.63,2.76,0.56,2.41,0.56c-0.35,0-0.67,0.07-0.96,0.2S0.9,1.06,0.68,1.29S0.3,1.78,0.18,2.07
		C0.06,2.36,0,2.66,0,2.99C0,3.3,0.06,3.6,0.17,3.89c0.11,0.29,0.28,0.55,0.49,0.79C0.87,4.91,1.12,5.1,1.42,5.24
		c0.29,0.14,0.61,0.21,0.97,0.21c0.35,0,0.67-0.07,0.97-0.2C3.64,5.11,3.9,4.93,4.11,4.7c0.22-0.23,0.38-0.49,0.5-0.78
		c0.02-0.06,0.04-0.11,0.06-0.17v1.66h1.11V3.99l0.5-0.52l1.36,1.93h1.27L6.99,2.74l0.98-1.18h2.39v3.84h1.11V1.57h1.46V0.59
		L8.8,0.59L8.8,0.59z M3.57,3.51C3.52,3.69,3.44,3.84,3.34,3.98c-0.1,0.14-0.24,0.26-0.39,0.34C2.79,4.41,2.61,4.45,2.4,4.45
		c-0.21,0-0.4-0.04-0.55-0.12C1.69,4.24,1.56,4.14,1.45,4C1.35,3.87,1.27,3.71,1.21,3.54C1.15,3.36,1.12,3.18,1.12,3
		s0.03-0.36,0.08-0.53C1.26,2.3,1.34,2.14,1.44,2c0.1-0.14,0.24-0.25,0.39-0.33c0.16-0.08,0.34-0.12,0.56-0.12
		c0.2,0,0.38,0.04,0.54,0.11c0.16,0.08,0.29,0.18,0.4,0.32c0.11,0.14,0.19,0.29,0.24,0.46C3.63,2.62,3.65,2.8,3.65,2.99
		C3.65,3.17,3.63,3.34,3.57,3.51z"/>
	<path class="st0" d="M21.05,1.11c-0.14-0.15-0.31-0.28-0.5-0.37c-0.19-0.09-0.4-0.14-0.63-0.14h-2.06v4.82h1.11V3.85h0.98
		c0.31,0,0.57-0.08,0.8-0.23c0.23-0.16,0.41-0.36,0.54-0.61c0.13-0.25,0.19-0.51,0.19-0.78c0-0.2-0.04-0.4-0.11-0.6
		C21.31,1.43,21.2,1.26,21.05,1.11z M20.3,2.58c-0.04,0.1-0.1,0.17-0.17,0.22c-0.07,0.05-0.15,0.07-0.23,0.07h-0.91V1.57h0.87
		c0.09,0,0.17,0.02,0.25,0.07c0.08,0.04,0.14,0.12,0.19,0.21c0.05,0.1,0.07,0.22,0.07,0.38C20.37,2.36,20.34,2.48,20.3,2.58z"/>
	<path class="st0" d="M24.91,3.05c0,0.18-0.02,0.35-0.06,0.52c-0.04,0.17-0.1,0.32-0.18,0.45c-0.08,0.13-0.18,0.24-0.31,0.32
		c-0.13,0.08-0.29,0.11-0.48,0.11c-0.19,0-0.35-0.04-0.48-0.12c-0.13-0.08-0.24-0.18-0.31-0.31c-0.08-0.13-0.14-0.28-0.17-0.44
		s-0.06-0.34-0.06-0.53V0.59h-1.11v2.46c0,0.31,0.04,0.61,0.12,0.9c0.08,0.29,0.2,0.54,0.37,0.77c0.17,0.22,0.39,0.4,0.66,0.53
		c0.27,0.13,0.6,0.19,0.98,0.19c0.37,0,0.7-0.06,0.97-0.18c0.27-0.12,0.49-0.29,0.66-0.52c0.17-0.22,0.3-0.47,0.38-0.76
		c0.08-0.29,0.12-0.6,0.12-0.93V0.59h-1.11L24.91,3.05L24.91,3.05z"/>
	<path class="st0" d="M29.82,3.26c-0.12-0.18-0.29-0.33-0.52-0.44c-0.23-0.11-0.49-0.21-0.8-0.3c-0.22-0.06-0.4-0.11-0.55-0.16
		c-0.15-0.05-0.26-0.1-0.34-0.17c-0.08-0.07-0.12-0.15-0.12-0.25c0-0.13,0.05-0.23,0.16-0.3s0.25-0.1,0.44-0.1
		c0.15,0,0.29,0.02,0.43,0.06c0.15,0.04,0.28,0.08,0.4,0.14c0.12,0.06,0.22,0.11,0.3,0.16c0.08,0.05,0.13,0.08,0.15,0.1l0.48-0.91
		c-0.13-0.09-0.3-0.17-0.48-0.25c-0.19-0.08-0.38-0.15-0.59-0.2c-0.21-0.06-0.43-0.08-0.66-0.08c-0.32,0-0.62,0.06-0.89,0.18
		c-0.27,0.12-0.49,0.29-0.65,0.53c-0.16,0.23-0.24,0.52-0.24,0.86c0,0.24,0.05,0.44,0.14,0.6s0.24,0.3,0.43,0.41
		c0.19,0.11,0.44,0.21,0.73,0.31c0.23,0.06,0.43,0.12,0.6,0.18c0.17,0.06,0.31,0.12,0.41,0.19c0.1,0.07,0.15,0.16,0.15,0.28
		c0,0.11-0.05,0.2-0.15,0.26c-0.1,0.06-0.25,0.1-0.45,0.1c-0.18,0-0.36-0.03-0.54-0.08c-0.18-0.05-0.35-0.11-0.49-0.18
		C27.03,4.12,26.91,4.06,26.81,4c-0.1-0.06-0.16-0.1-0.18-0.13l-0.48,0.98c0.19,0.12,0.4,0.22,0.62,0.31
		c0.23,0.09,0.46,0.16,0.71,0.21c0.25,0.05,0.49,0.07,0.72,0.07c0.23,0,0.45-0.03,0.67-0.08c0.21-0.05,0.41-0.13,0.58-0.25
		s0.31-0.27,0.41-0.46C29.95,4.47,30,4.24,30,3.98C30,3.68,29.94,3.44,29.82,3.26z"/>
</g>
</svg>
